<svg width="11" height="12" viewBox="0 0 11 12" fill="none" xmlns="http://www.w3.org/2000/svg">
<rect x="0.5" y="1.5" width="10" height="10" rx="0.5" fill="#BAB8B7" stroke="#1F1F1E"/>
<line x1="1.5" x2="1.5" y2="1" stroke="#1F1F1E"/>
<line x1="9.5" x2="9.5" y2="1" stroke="#1F1F1E"/>
<line x1="2.5" y1="3" x2="2.5" y2="8" stroke="#1F1F1E"/>
<line x1="2" y1="3.5" x2="8" y2="3.5" stroke="#1F1F1E"/>
<line x1="8.5" y1="3" x2="8.5" y2="8" stroke="#1F1F1E"/>
<line x1="3" y1="7.5" x2="7" y2="7.5" stroke="#1F1F1E"/>
<line x1="4.5" y1="3" x2="4.5" y2="7" stroke="#1F1F1E"/>
<line x1="2" y1="5.5" x2="7" y2="5.5" stroke="#1F1F1E"/>
<line x1="7.5" y1="3" x2="7.5" y2="4" stroke="#1F1F1E"/>
<line x1="6.5" y1="4" x2="6.5" y2="8" stroke="#1F1F1E"/>
<line x1="7" y1="7.5" x2="8" y2="7.5" stroke="#1F1F1E"/>
<line x1="7" y1="5.5" x2="8" y2="5.5" stroke="#1F1F1E"/>
<line x1="2.5" y1="8" x2="2.5" y2="9" stroke="#1F1F1E"/>
<line x1="2" y1="9.5" x2="9" y2="9.5" stroke="#1F1F1E"/>
<line x1="8.5" y1="8" x2="8.5" y2="9" stroke="#1F1F1E"/>
<line x1="4" y1="8.5" x2="5" y2="8.5" stroke="#1F1F1E"/>
<line x1="6" y1="8.5" x2="7" y2="8.5" stroke="#1F1F1E"/>
</svg>
