<svg xmlns="http://www.w3.org/2000/svg"  viewBox="0 0 40 40" width="40px" height="40px" baseProfile="basic"><path fill="#bae0bd" stroke="#5e9c76" stroke-miterlimit="10" d="M9.824,9.908H9.252l6.762-6.762 c2.203-2.195,5.769-2.195,7.973,0l6.762,6.762h-0.572c-1.346,0-2.616,0.521-3.566,1.48l-5.719,5.694 c-0.496,0.496-1.287,0.496-1.783,0l-5.719-5.694C12.439,10.429,11.169,9.908,9.824,9.908z"/><path fill="#bae0bd" stroke="#5e9c76" stroke-miterlimit="10" d="M30.176,30.092h0.572l-6.762,6.762 c-2.203,2.195-5.769,2.195-7.973,0l-6.762-6.762h0.572c1.346,0,2.616-0.521,3.566-1.48l5.719-5.694 c0.496-0.496,1.287-0.496,1.783,0l5.719,5.694C27.561,29.571,28.831,30.092,30.176,30.092z"/><path fill="#bae0bd" stroke="#5e9c76" stroke-miterlimit="10" d="M36.854,23.986L32.43,28.41h-2.254 c-0.9,0-1.741-0.353-2.38-0.984l-5.719-5.702c-1.144-1.144-3.011-1.144-4.155,0l-5.719,5.702c-0.639,0.631-1.48,0.984-2.38,0.984 H7.57l-4.424-4.424c-2.195-2.203-2.195-5.769,0-7.973L7.57,11.59h2.254c0.9,0,1.741,0.353,2.38,0.984l5.719,5.702 c0.572,0.572,1.329,0.858,2.077,0.858c0.748,0,1.505-0.286,2.077-0.858l5.719-5.702c0.639-0.631,1.48-0.984,2.38-0.984h2.254 l4.424,4.424C39.049,18.217,39.049,21.783,36.854,23.986z"/></svg>